# Blender v3.0.0 OBJ File: 'eleven_sided_toy_alt_001.blend'
# www.blender.org
mtllib eleven_sided_toy_alt_001.mtl
o 11_sided_object_alt
v 0.098179 0.000000 0.098179
v 0.136036 0.094845 0.136036
v 0.099484 0.000000 -0.096996
v -0.097374 0.000000 0.096874
v -0.097185 0.000000 -0.097185
v -0.136413 0.094845 0.134736
v -0.059498 0.232674 -0.059498
v 0.137335 0.094845 -0.134858
v -0.135636 0.094845 -0.135636
v 0.064155 0.232674 0.064155
vn 0.0000 -1.0000 0.0000
vn 0.9287 -0.3707 0.0052
vn -0.0052 -0.3707 0.9287
vn 0.0019 -0.3732 -0.9277
vn -0.9257 -0.3782 -0.0019
vn 0.0042 -0.4607 -0.8876
vn -0.8857 -0.4642 -0.0042
vn -0.0025 -0.4825 0.8759
vn 0.8747 -0.4846 0.0025
vn -0.4117 -0.8130 0.4117
vn 0.4127 -0.8120 -0.4127
usemtl None
s off
f 3//1 1//1 4//1 5//1
f 1//2 3//2 8//2 2//2
f 4//3 1//3 2//3 6//3
f 3//4 5//4 9//4 8//4
f 5//5 4//5 6//5 9//5
f 6//6 10//6 2//6
f 8//7 2//7 10//7
f 7//8 9//8 8//8
f 6//9 9//9 7//9
f 10//10 7//10 8//10
f 6//11 7//11 10//11
